<?xml version="1.0" standalone="no"?>
<!DOCTYPE svg PUBLIC "-//W3C//DTD SVG 20010904//EN"
 "http://www.w3.org/TR/2001/REC-SVG-20010904/DTD/svg10.dtd">
<svg version="1.0" xmlns="http://www.w3.org/2000/svg"
 width="1280.000000pt" height="1137.000000pt" viewBox="0 0 1280.000000 1137.000000"
 preserveAspectRatio="xMidYMid meet">
<g transform="translate(0.000000,1137.000000) scale(0.100000,-0.100000)"
fill="#000000" stroke="none">
<path d="M9970 10603 c-697 -30 -1466 -222 -1960 -491 -226 -122 -527 -319
-715 -468 -147 -117 -364 -337 -447 -454 -124 -174 -211 -376 -259 -600 -31
-142 -34 -476 -6 -615 44 -220 124 -409 237 -560 62 -82 66 -90 52 -99 -4 -3
-120 -30 -258 -60 -986 -218 -1873 -285 -2639 -200 -664 73 -1164 271 -1475
583 -192 192 -293 391 -331 650 -17 121 -6 431 19 541 61 259 172 461 357 645
126 125 251 215 425 304 285 146 559 222 965 267 215 24 728 24 1000 0 501
-44 1008 -130 1539 -262 l220 -55 66 20 c37 11 73 28 82 38 16 19 48 143 48
189 0 40 -59 144 -89 156 -68 26 -606 155 -870 208 -713 143 -1280 199 -1871
187 -396 -8 -699 -42 -1027 -112 -905 -195 -1601 -673 -1848 -1270 -163 -393
-149 -882 37 -1273 90 -190 276 -419 463 -570 469 -379 1155 -620 2010 -707
478 -48 1044 -48 1580 0 359 33 800 98 1189 176 204 41 631 138 720 165 73 21
87 18 173 -33 188 -112 436 -218 674 -289 68 -20 126 -39 128 -41 14 -11 -36
-26 -239 -73 -1123 -259 -2039 -671 -2765 -1243 -149 -117 -480 -441 -579
-567 -305 -387 -478 -786 -527 -1219 -17 -155 -7 -458 21 -596 71 -355 217
-634 470 -898 456 -476 1154 -762 2020 -827 175 -13 589 -13 761 0 776 60
1524 289 2180 666 164 94 415 262 574 386 144 111 407 370 496 488 149 197
246 399 297 613 23 99 26 132 26 287 0 158 -3 185 -27 275 -54 200 -149 357
-311 512 -286 275 -645 413 -1117 430 -788 28 -1710 -335 -2749 -1080 -164
-118 -354 -263 -370 -283 -8 -8 -19 -45 -26 -82 -15 -77 -12 -85 55 -176 47
-63 67 -74 150 -82 l56 -5 105 77 c151 110 511 348 680 448 373 222 770 396
1072 470 305 74 634 74 868 0 297 -93 509 -296 575 -549 38 -145 27 -385 -26
-545 -124 -380 -479 -737 -988 -994 -468 -236 -933 -339 -1541 -340 -524 -1
-884 70 -1226 242 -416 209 -682 542 -765 962 -10 52 -22 165 -25 250 -18 431
104 846 361 1230 111 166 195 269 345 424 764 787 1961 1331 3410 1551 178 27
237 46 286 92 23 21 24 29 24 132 l0 109 -38 49 c-21 26 -45 53 -53 59 -8 7
-63 22 -124 34 -265 52 -525 126 -723 206 -145 58 -353 163 -399 200 -36 30
-34 32 142 90 876 291 1663 644 2160 971 374 246 655 516 804 772 160 275 200
585 110 856 -85 256 -299 461 -604 579 -268 103 -611 147 -1015 129z m230
-483 c240 -49 430 -203 501 -405 31 -90 44 -222 31 -330 -28 -223 -137 -422
-346 -630 -317 -315 -805 -589 -1586 -890 -200 -77 -781 -272 -825 -277 -24
-3 -35 5 -77 57 -58 71 -142 235 -163 320 -56 223 -40 547 40 781 157 461 567
891 1100 1154 338 167 645 237 1045 239 147 1 204 -3 280 -19z"/>
</g>
</svg>
